<svg width="26" height="26" viewBox="0 0 26 26" fill="none" xmlns="http://www.w3.org/2000/svg">
<rect width="26" height="26" rx="7" fill="#ECD9D9"/>
<path d="M13 3L15.0206 9.56434H21.5595L16.2694 13.6213L18.2901 20.1857L13 16.1287L7.70993 20.1857L9.73056 13.6213L4.44049 9.56434H10.9794L13 3Z" fill="white"/>
<path d="M13 4.69955L14.5428 9.71144L14.6514 10.0643H15.0206H20.0859L15.9652 13.2246L15.6893 13.4361L15.7916 13.7684L17.3514 18.8357L13.3043 15.7319L13 15.4986L12.6957 15.7319L8.64864 18.8357L10.2084 13.7684L10.3107 13.4361L10.0348 13.2246L5.91409 10.0643H10.9794H11.3486L11.4572 9.71144L13 4.69955Z" stroke="white" stroke-opacity="0.3"/>
</svg>
